<?xml version="1.0" encoding="utf-8"?>
<!-- Generator: Adobe Illustrator 19.0.0, SVG Export Plug-In . SVG Version: 6.00 Build 0)  -->
<svg width="59px" height="60px" version="1.1" id="Layer_1" xmlns="http://www.w3.org/2000/svg" xmlns:xlink="http://www.w3.org/1999/xlink"
	 viewBox="0 0 1200 1200" style="enable-background:new 0 0 1200 1200;" xml:space="preserve">
<style type="text/css">
	.st0{fill:#6879d1;}
	.st1{fill:#FFFFFF;}
</style>
<path id="XMLID_5_" class="st0" d="M873.8,1006.4H283.9c-61,0-110.8-49.9-110.8-110.8V305.6c0-61,49.9-110.8,110.8-110.8h589.9
	c61,0,110.8,49.9,110.8,110.8v589.9C984.7,956.5,934.8,1006.4,873.8,1006.4z"/>
<g id="XMLID_4_">
	<path id="XMLID_62_" class="st1" d="M619.9,503.1c0.1,0,0.2,0,0.3,0c4,0,7.3,3.3,7.3,7.3c0,4-3.3,7.3-7.3,7.3c-4,0-7.3-3.3-7.3-7.3
		c0-1.7,0.6-3.2,1.5-4.4c-1.9,0.6-3.9,1-6,1c-10.5,0-19.1-8.5-19.1-19.1c0-10.5,8.5-19.1,19.1-19.1c10.5,0,19.1,8.5,19.1,19.1
		C627.5,494.1,624.6,499.6,619.9,503.1z"/>
	<g id="XMLID_75_">
		<path id="XMLID_10_" class="st1" d="M538.3,805.9c-3.7,7.2-8,14.1-13,20.5c1.2-1.6,2.3-3.3,3.5-5c1.1-1.7,2.3-3.4,3.3-5.1
			C534.3,812.9,536.4,809.4,538.3,805.9z"/>
		<path id="XMLID_12_" class="st1" d="M642.8,838.3c-0.4-0.4-0.7-0.7-1.1-1.1c-8.1-8.4-15.2-18-20.8-28.3c-0.2-0.3-0.3-0.6-0.5-0.9
			C627,818.7,634.5,828.9,642.8,838.3z"/>
		<path id="XMLID_11_" class="st1" d="M881,503.2c-0.4-0.2-0.7-0.4-1.3-0.6c-0.4-0.1-0.9-0.2-1.6-0.3v0c2-1.6,1.6-3.1,1.9-4.7
			c0-0.1,0.5-0.1,0.5-0.1c0,0.1-0.2,0.1-0.2,0.2c0.3,1.7,0.5,3.4,0.7,5.2C880.9,502.9,880.9,503,881,503.2z"/>
	</g>
	<path id="XMLID_58_" class="st1" d="M627.5,510.3c0,4-3.3,7.3-7.3,7.3c-4,0-7.3-3.3-7.3-7.3c0-1.7,0.6-3.2,1.5-4.4
		c-1.9,0.6-3.9,1-6,1c-10.5,0-19.1-8.5-19.1-19.1c0-10.5,8.5-19.1,19.1-19.1c10.5,0,19.1,8.5,19.1,19.1c0,6.2-3,11.8-7.6,15.2
		c0.1,0,0.2,0,0.3,0C624.3,503.1,627.5,506.3,627.5,510.3z"/>
	<path id="XMLID_65_" class="st1" d="M602.3,445.1c-25.5,0-46.2,20.7-46.2,46.2c0,25.5,20.7,46.2,46.2,46.2
		c25.5,0,46.2-20.7,46.2-46.2C648.5,465.8,627.8,445.1,602.3,445.1z M609,522.1c-17,0-30.8-13.8-30.8-30.8s13.8-30.8,30.8-30.8
		s30.8,13.8,30.8,30.8S626.1,522.1,609,522.1z"/>
	<path id="XMLID_19_" class="st1" d="M874,750.4c-8.8,0-17.2-1.4-25.1-4c-13.8-4.5-26-12.7-35.4-23.3c-2.1-2.4-4.1-4.9-5.9-7.5
		c-19.1-23.7-41.3-44.8-66-62.6c3.6,0.3,7.3,0.5,11,0.5c15.5,0,30.4-2.7,44.2-7.7c2.7-1,5.3-2,7.9-3.2c25.2-11,46.3-29.7,60.3-53.2
		c9.7-16.3,15.9-34.9,17.7-54.8c0.3-3.9,0.5-7.8,0.5-11.7c0-6.6-0.5-13.1-1.5-19.5c0-0.1,0-0.2,0-0.2c-0.3-0.1-0.6-0.3-0.9-0.4
		c0,0.1,0,0.3,0.1,0.4c-0.4-0.2-0.7-0.4-1.3-0.6c-2.2,9.3-5.4,18.1-9.5,26.5c-21.2,43.4-65.8,73.3-117.4,73.3c-16.2,0-31.7-3-46-8.3
		c-18.7-7-35.3-18.2-48.8-32.4c31.4-23.8,51.7-61.5,51.7-104c0-72.1-58.5-130.6-130.6-130.6c-15.5,0-30.4,2.7-44.2,7.7
		c-19.5,7-36.8,18.5-50.7,33.2c-10,10.6-18.3,22.8-24.3,36.3c-7.3,16.3-11.3,34.3-11.3,53.3c0,42.3,20.1,79.9,51.4,103.8
		c-13.5,14.3-30.2,25.6-49,32.6c-14.3,5.4-29.8,8.3-46,8.3c-51.6,0-96.2-29.9-117.4-73.3c-3.7-7.5-6.6-15.3-8.8-23.5
		c-0.3-1.1-0.6-2.2-0.8-3.3c-0.4-1.6-0.7-3.1-1-4.7c0-0.1,0-0.1,0-0.1c0,0.1,0,0.1,0,0.2c-0.4,1.9-0.7,3.9-1,5.8
		c-0.2,1.2-0.3,2.3-0.5,3.5c-0.7,5.2-1,10.6-1,16c0,4,0.2,7.9,0.5,11.7c1.7,19.9,8,38.5,17.7,54.8c13.9,23.5,35,42.2,60.3,53.2
		c2.6,1.1,5.2,2.2,7.9,3.2c13.8,5,28.7,7.7,44.2,7.7c3.7,0,7.4-0.1,11.1-0.5c-24.7,17.8-46.9,38.9-66,62.6c-1.8,2.6-3.8,5.1-5.9,7.5
		c-9.4,10.6-21.6,18.8-35.4,23.3c-7.9,2.6-16.3,4-25.1,4c-21.7,0-41.4-8.5-55.9-22.5c19.2,26.4,48,45.4,81.4,51.7
		c1.9,0.4,3.8,0.7,5.7,1c6.1,0.9,12.3,1.3,18.6,1.3c12.8,0,25.1-1.8,36.7-5.2c2.8-0.8,5.7-1.8,8.4-2.8c0.8-0.3,1.6-0.6,2.3-0.9
		c1.1-0.4,2.2-0.9,3.3-1.3c3.2-1.3,6.4-2.8,9.5-4.4c1.5-0.9,2.9-1.7,4.4-2.6c0.6-0.3,1.1-0.7,1.7-1l0,0c0.2-0.1,0.3-0.2,0.4-0.3
		c1.7-1.1,3.4-2.1,5.1-3.2c1.9-1.2,3.7-2.4,5.5-3.6c6.7-4.5,13.2-9.2,19.6-14.1c0.6-0.4,1.2-0.9,1.8-1.4c1.5-1.1,2.9-2.3,4.3-3.5
		c4.1-3.3,8.1-6.7,12-10.2c4-3.5,7.8-7.1,11.6-10.8c6.3-6.1,12.3-12.5,18.1-19.1c-2.4,7.1-4.1,14.5-5.2,22.2
		c-0.9,6-1.3,12.1-1.3,18.3v0.4c0,10.8,1.3,21.4,3.8,31.4c0,0,0,0.1,0,0.1c0.9,2.4,1.6,4.9,2.1,7.4c0,0.1,0,0.3,0.1,0.4
		c5.5,29-15.8,56.8-45.3,59c-24.5,1.8-45.6-14.1-51.8-36.2c-1.2,5.6-1.9,11.4-1.9,17.3v0.3c0,17,7.8,33.1,21.5,43.3
		c0.2,0.1,0.4,0.3,0.6,0.4c17.9,13,41.1,15.8,62.1,8.8c24.9-8.2,46.5-23.7,62.2-44c1.2-1.6,2.3-3.3,3.5-5c1.1-1.7,2.2-3.4,3.3-5.1
		c2.2-3.4,4.2-6.9,6.2-10.4c13.8-24.7,22.7-52.4,25.6-81.9c4.5-1.3,9.3-2.1,14.2-2.1c4.6,0,9,0.6,13.1,1.7
		c3.6,30.4,13.7,58.9,28.9,83.9c0.1,0.1,0.1,0.2,0.2,0.3c0.2,0.3,0.4,0.6,0.5,0.9c-0.2-0.3-0.3-0.6-0.5-0.9
		c6.6,10.8,14,20.9,22.4,30.3c-0.4-0.4-0.7-0.7-1.1-1.1c0.3,0.4,0.7,0.8,1,1.1c14.3,14.4,31.9,25.6,51.6,32.1
		c21,6.9,44,4.2,61.9-8.8c0.2-0.1,0-0.3,0.2-0.4C770,851,777,834.8,777,817.9v-0.3c0-5.9,0.2-11.7-1-17.3
		c-6.2,22.1-26.5,38-50.9,36.2c-29.5-2.2-50.8-30-45.2-59c0-0.1,0.1-0.3,0.1-0.4c0.5-2.6,1.4-5,2.2-7.4c0,0,0.3,0,0.3-0.1
		c2.5-10,4.4-20.6,4.4-31.4v-0.4c0-6.2-1.1-12.4-2-18.3c-1.1-7.6-3.5-15-5.8-22.2c5.8,6.6,11.8,13,18.1,19.1
		c3.8,3.7,7.7,7.3,11.6,10.8c3.9,3.5,8,6.9,12.1,10.2c1.4,1.2,2.9,2.3,4.4,3.5c0.6,0.5,1.2,0.9,1.8,1.4c6.4,4.9,12.9,9.6,19.6,14.1
		c1.8,1.2,3.7,2.4,5.5,3.6c1.7,1.1,3.4,2.2,5.1,3.2c0.2,0.1,0.3,0.2,0.4,0.3l0,0c0.6,0.3,1.1,0.7,1.7,1c1.5,0.9,2.9,1.8,4.4,2.6
		c3.1,1.6,6.3,3.1,9.5,4.4c1.1,0.5,2.2,0.9,3.3,1.3c0.8,0.3,1.6,0.6,2.3,0.9c2.8,1,5.6,2,8.4,2.8c11.6,3.4,24,5.2,36.7,5.2
		c6.3,0,12.5-0.4,18.6-1.3c1.9-0.3,3.8-0.6,5.7-1c33.4-6.3,62.2-25.3,81.4-51.7C915.4,741.8,895.7,750.4,874,750.4z M602.3,437.8
		c29.5,0,53.5,24,53.5,53.5c0,29.5-24,53.5-53.5,53.5c-29.5,0-53.5-24-53.5-53.5C548.8,461.8,572.8,437.8,602.3,437.8z"/>
	<path id="XMLID_22_" class="st1" d="M620.4,808c6.6,10.8,14,20.9,22.4,30.3c-0.4-0.4-0.7-0.7-1.1-1.1c-7.7-8.8-14.6-18.3-20.8-28.3
		C620.7,808.5,620.6,808.2,620.4,808z"/>
	<path id="XMLID_23_" class="st1" d="M881,503.2c-0.4-0.2-0.7-0.4-1.3-0.6c0-0.1,0.1-0.2,0.1-0.3c0.4,0.2,0.8,0.3,1.2,0.5
		C880.9,502.9,880.9,503,881,503.2z"/>
	<path id="XMLID_56_" class="st1" d="M627.5,487.9c0,6.2-3,11.8-7.6,15.2c-1.6,1.2-3.5,2.2-5.5,2.9c-1.9,0.6-3.9,1-6,1
		c-10.5,0-19.1-8.5-19.1-19.1c0-10.5,8.5-19.1,19.1-19.1C619,468.8,627.5,477.3,627.5,487.9z"/>
	<path id="XMLID_54_" class="st1" d="M627.5,510.3c0,4-3.3,7.3-7.3,7.3c-4,0-7.3-3.3-7.3-7.3c0-1.7,0.6-3.2,1.5-4.4
		c1.3-1.7,3.2-2.8,5.5-2.9c0.1,0,0.2,0,0.3,0C624.3,503.1,627.5,506.3,627.5,510.3z"/>
</g>
</svg>
